{
    "asset" : {
        "generator" : "Khronos glTF Blender I/O v1.1.46",
        "version" : "2.0"
    },
    "scene" : 0,
    "scenes" : [
        {
            "name" : "Scene",
            "nodes" : [
                5
            ]
        }
    ],
    "nodes" : [
        {
            "mesh" : 0,
            "name" : "instance_0_Material__2_0",
            "scale" : [
                0.009999999776482582,
                0.009999999776482582,
                0.009999999776482582
            ]
        },
        {
            "children" : [
                0
            ],
            "name" : "instance_0"
        },
        {
            "children" : [
                1
            ],
            "name" : "RootNode"
        },
        {
            "children" : [
                2
            ],
            "name" : "cb45909c711f4e78ab1927895e5e5326.fbx",
            "rotation" : [
                0.7071068286895752,
                0,
                0,
                0.7071068286895752
            ]
        },
        {
            "children" : [
                3
            ],
            "name" : "RootNode (model correction matrix)"
        },
        {
            "children" : [
                4
            ],
            "name" : "RootNode (gltf orientation matrix)"
        }
    ],
    "materials" : [
        {
            "doubleSided" : true,
            "emissiveFactor" : [
                0,
                0,
                0
            ],
            "name" : "Material__2",
            "pbrMetallicRoughness" : {
                "baseColorFactor" : [
                    0.49803900718688965,
                    0.49803900718688965,
                    0.49803900718688965,
                    1
                ],
                "metallicFactor" : 1,
                "roughnessFactor" : 0.2926136255264282
            }
        },
        {
            "doubleSided" : true,
            "emissiveFactor" : [
                0,
                0,
                0
            ],
            "name" : "Color_A04",
            "pbrMetallicRoughness" : {
                "baseColorFactor" : [
                    0.9569351077079773,
                    0.4523727595806122,
                    0.4523727595806122,
                    1
                ],
                "metallicFactor" : 0,
                "roughnessFactor" : 1
            }
        },
        {
            "doubleSided" : true,
            "emissiveFactor" : [
                0,
                0,
                0
            ],
            "name" : "Auge1",
            "pbrMetallicRoughness" : {
                "baseColorTexture" : {
                    "index" : 0,
                    "texCoord" : 0
                },
                "metallicFactor" : 0,
                "roughnessFactor" : 0.062310606241226196
            }
        },
        {
            "doubleSided" : true,
            "emissiveFactor" : [
                0,
                0,
                0
            ],
            "name" : "windel1",
            "pbrMetallicRoughness" : {
                "baseColorFactor" : [
                    0.8666669726371765,
                    0.8666669726371765,
                    0.8666669726371765,
                    1
                ],
                "metallicFactor" : 0,
                "roughnessFactor" : 1
            }
        },
        {
            "doubleSided" : true,
            "emissiveFactor" : [
                0,
                0,
                0
            ],
            "name" : "Color_B05",
            "pbrMetallicRoughness" : {
                "baseColorFactor" : [
                    0.8434023857116699,
                    0.5594761371612549,
                    0.48066985607147217,
                    1
                ],
                "metallicFactor" : 0,
                "roughnessFactor" : 1
            }
        }
    ],
    "meshes" : [
        {
            "name" : "instance_0_Material__2_0",
            "primitives" : [
                {
                    "attributes" : {
                        "POSITION" : 0,
                        "NORMAL" : 1,
                        "TEXCOORD_0" : 2
                    },
                    "indices" : 3,
                    "material" : 0
                },
                {
                    "attributes" : {
                        "POSITION" : 4,
                        "NORMAL" : 5,
                        "TEXCOORD_0" : 6
                    },
                    "indices" : 7,
                    "material" : 1
                },
                {
                    "attributes" : {
                        "POSITION" : 8,
                        "NORMAL" : 9,
                        "TEXCOORD_0" : 10
                    },
                    "indices" : 11,
                    "material" : 2
                },
                {
                    "attributes" : {
                        "POSITION" : 12,
                        "NORMAL" : 13,
                        "TEXCOORD_0" : 14
                    },
                    "indices" : 15,
                    "material" : 3
                },
                {
                    "attributes" : {
                        "POSITION" : 16,
                        "NORMAL" : 17,
                        "TEXCOORD_0" : 18
                    },
                    "indices" : 19,
                    "material" : 4
                }
            ]
        }
    ],
    "textures" : [
        {
            "source" : 0
        }
    ],
    "images" : [
        {
            "mimeType" : "image/png",
            "name" : "Auge1_baseColor",
            "uri" : "Auge1_baseColor.png"
        }
    ],
    "accessors" : [
        {
            "bufferView" : 0,
            "componentType" : 5126,
            "count" : 186,
            "max" : [
                5.856257438659668,
                2.195983648300171,
                -0.06592226028442383
            ],
            "min" : [
                -6.2555623054504395,
                1.3259741067886353,
                -5.507692337036133
            ],
            "type" : "VEC3"
        },
        {
            "bufferView" : 1,
            "componentType" : 5126,
            "count" : 186,
            "type" : "VEC3"
        },
        {
            "bufferView" : 2,
            "componentType" : 5126,
            "count" : 186,
            "type" : "VEC2"
        },
        {
            "bufferView" : 3,
            "componentType" : 5123,
            "count" : 1068,
            "type" : "SCALAR"
        },
        {
            "bufferView" : 4,
            "componentType" : 5126,
            "count" : 69,
            "max" : [
                1.2565386295318604,
                -14.604687690734863,
                -9.563382148742676
            ],
            "min" : [
                -1.2463611364364624,
                -16.950124740600586,
                -10.686521530151367
            ],
            "type" : "VEC3"
        },
        {
            "bufferView" : 5,
            "componentType" : 5126,
            "count" : 69,
            "type" : "VEC3"
        },
        {
            "bufferView" : 6,
            "componentType" : 5126,
            "count" : 69,
            "type" : "VEC2"
        },
        {
            "bufferView" : 7,
            "componentType" : 5123,
            "count" : 309,
            "type" : "SCALAR"
        },
        {
            "bufferView" : 8,
            "componentType" : 5126,
            "count" : 158,
            "max" : [
                2.5226333141326904,
                -18.274892807006836,
                -8.808521270751953
            ],
            "min" : [
                -2.524705648422241,
                -18.909151077270508,
                -9.421814918518066
            ],
            "type" : "VEC3"
        },
        {
            "bufferView" : 9,
            "componentType" : 5126,
            "count" : 158,
            "type" : "VEC3"
        },
        {
            "bufferView" : 10,
            "componentType" : 5126,
            "count" : 158,
            "type" : "VEC2"
        },
        {
            "bufferView" : 11,
            "componentType" : 5123,
            "count" : 258,
            "type" : "SCALAR"
        },
        {
            "bufferView" : 12,
            "componentType" : 5126,
            "count" : 559,
            "max" : [
                6.15562629699707,
                8.115495681762695,
                0.9125838279724121
            ],
            "min" : [
                -6.111378192901611,
                0.6154727935791016,
                -9.979667663574219
            ],
            "type" : "VEC3"
        },
        {
            "bufferView" : 13,
            "componentType" : 5126,
            "count" : 559,
            "type" : "VEC3"
        },
        {
            "bufferView" : 14,
            "componentType" : 5126,
            "count" : 559,
            "type" : "VEC2"
        },
        {
            "bufferView" : 15,
            "componentType" : 5123,
            "count" : 3330,
            "type" : "SCALAR"
        },
        {
            "bufferView" : 16,
            "componentType" : 5126,
            "count" : 5605,
            "max" : [
                21.82686424255371,
                25.050384521484375,
                0.40422487258911133
            ],
            "min" : [
                -21.826866149902344,
                -25.03676986694336,
                -11.496597290039062
            ],
            "type" : "VEC3"
        },
        {
            "bufferView" : 17,
            "componentType" : 5126,
            "count" : 5605,
            "type" : "VEC3"
        },
        {
            "bufferView" : 18,
            "componentType" : 5126,
            "count" : 5605,
            "type" : "VEC2"
        },
        {
            "bufferView" : 19,
            "componentType" : 5123,
            "count" : 32967,
            "type" : "SCALAR"
        }
    ],
    "bufferViews" : [
        {
            "buffer" : 0,
            "byteLength" : 2232,
            "byteOffset" : 0
        },
        {
            "buffer" : 0,
            "byteLength" : 2232,
            "byteOffset" : 2232
        },
        {
            "buffer" : 0,
            "byteLength" : 1488,
            "byteOffset" : 4464
        },
        {
            "buffer" : 0,
            "byteLength" : 2136,
            "byteOffset" : 5952
        },
        {
            "buffer" : 0,
            "byteLength" : 828,
            "byteOffset" : 8088
        },
        {
            "buffer" : 0,
            "byteLength" : 828,
            "byteOffset" : 8916
        },
        {
            "buffer" : 0,
            "byteLength" : 552,
            "byteOffset" : 9744
        },
        {
            "buffer" : 0,
            "byteLength" : 618,
            "byteOffset" : 10296
        },
        {
            "buffer" : 0,
            "byteLength" : 1896,
            "byteOffset" : 10916
        },
        {
            "buffer" : 0,
            "byteLength" : 1896,
            "byteOffset" : 12812
        },
        {
            "buffer" : 0,
            "byteLength" : 1264,
            "byteOffset" : 14708
        },
        {
            "buffer" : 0,
            "byteLength" : 516,
            "byteOffset" : 15972
        },
        {
            "buffer" : 0,
            "byteLength" : 6708,
            "byteOffset" : 16488
        },
        {
            "buffer" : 0,
            "byteLength" : 6708,
            "byteOffset" : 23196
        },
        {
            "buffer" : 0,
            "byteLength" : 4472,
            "byteOffset" : 29904
        },
        {
            "buffer" : 0,
            "byteLength" : 6660,
            "byteOffset" : 34376
        },
        {
            "buffer" : 0,
            "byteLength" : 67260,
            "byteOffset" : 41036
        },
        {
            "buffer" : 0,
            "byteLength" : 67260,
            "byteOffset" : 108296
        },
        {
            "buffer" : 0,
            "byteLength" : 44840,
            "byteOffset" : 175556
        },
        {
            "buffer" : 0,
            "byteLength" : 65934,
            "byteOffset" : 220396
        }
    ],
    "buffers" : [
        {
            "byteLength" : 286332,
            "uri" : "Scene.bin"
        }
    ]
}
